<?xml version="1.0" standalone="no"?>
<!DOCTYPE svg PUBLIC "-//W3C//DTD SVG 20010904//EN"
 "http://www.w3.org/TR/2001/REC-SVG-20010904/DTD/svg10.dtd">
<svg version="1.0" xmlns="http://www.w3.org/2000/svg"
 width="700.000000pt" height="700.000000pt" viewBox="0 0 700.000000 700.000000"
 preserveAspectRatio="xMidYMid meet">
<metadata>
Created by potrace 1.11, written by Peter Selinger 2001-2013
</metadata>
<g transform="translate(0.000000,700.000000) scale(0.100000,-0.100000)"
fill="#000000" stroke="none">
<path d="M4521 6608 c-188 -397 -284 -601 -324 -688 -22 -49 -128 -273 -190
-403 l-23 -48 -60 68 c-32 37 -111 126 -174 198 -63 71 -144 164 -180 205 -36
41 -67 77 -70 80 -3 3 -100 113 -215 245 -116 132 -222 253 -237 270 -14 16
-37 43 -50 58 -23 26 -25 27 -40 10 -8 -10 -17 -23 -19 -28 -15 -41 -393 -675
-399 -668 -4 4 -68 111 -143 236 -131 220 -136 227 -150 205 -71 -113 -127
-208 -127 -217 0 -6 -4 -11 -10 -11 -5 0 -10 -4 -10 -9 0 -4 -42 -79 -94 -165
l-93 -157 -99 122 c-54 67 -104 127 -109 133 -6 6 -78 94 -160 195 -83 101
-176 216 -209 255 -32 39 -79 97 -105 128 -25 31 -48 57 -51 57 -3 0 -21 -14
-41 -32 -20 -17 -62 -55 -95 -83 -320 -278 -470 -408 -474 -413 -3 -3 -34 -31
-70 -61 -36 -30 -81 -69 -100 -86 -58 -52 -226 -198 -349 -303 -50 -43 -51
-45 -51 -101 0 -43 5 -61 19 -74 18 -16 21 -15 68 26 27 24 75 66 108 93 32
28 65 57 74 66 9 8 117 103 241 209 124 107 227 197 230 200 3 3 57 50 120
105 63 55 128 112 145 126 124 109 160 138 166 131 4 -4 113 -137 244 -297
130 -159 244 -299 253 -310 9 -11 35 -42 57 -70 44 -54 63 -78 94 -114 23 -26
24 -23 -42 -131 -22 -36 -48 -78 -57 -95 -17 -30 -316 -533 -555 -935 -70
-118 -169 -285 -220 -370 -183 -309 -846 -1424 -888 -1495 -61 -102 -58 -87
-55 -223 l3 -127 75 125 c41 69 80 133 85 142 12 22 82 138 448 754 157 264
295 497 306 517 11 20 31 53 45 74 20 32 149 250 181 306 6 9 95 160 199 335
104 174 230 387 281 472 477 803 631 1060 635 1060 4 0 745 -1224 850 -1405
34 -58 342 -571 502 -835 71 -118 140 -233 152 -255 13 -22 51 -84 85 -138 33
-54 61 -100 61 -102 0 -2 33 -57 73 -122 40 -65 76 -125 80 -133 23 -53 1085
-1802 1093 -1800 5 1 422 1034 926 2294 l917 2291 1 136 c0 112 -3 138 -15
143 -19 7 -15 17 -153 -329 -66 -165 -128 -317 -136 -337 l-16 -38 -212 209
-212 209 -16 -27 c-9 -14 -104 -181 -210 -371 -106 -190 -206 -367 -220 -393
l-27 -48 -184 248 c-101 136 -226 307 -279 378 -53 72 -212 288 -355 480 -142
193 -281 382 -310 420 -29 39 -58 80 -66 93 -8 12 -17 22 -21 22 -4 0 -25 -37
-47 -82z m421 -648 c176 -239 362 -491 413 -560 50 -69 183 -249 295 -400 449
-607 543 -735 543 -745 0 -9 -188 -487 -213 -540 -5 -11 -66 -164 -135 -340
-70 -176 -130 -327 -134 -335 -4 -8 -135 -336 -292 -727 -156 -392 -286 -713
-289 -712 -3 0 -66 102 -140 227 -75 125 -331 552 -570 949 -239 398 -446 742
-460 766 -14 23 -112 187 -218 363 l-193 321 82 174 c45 96 100 212 122 259
21 47 70 150 108 229 38 79 69 145 69 147 0 1 26 58 59 126 32 68 75 157 94
198 19 41 56 120 82 175 99 210 124 263 172 365 28 58 63 132 78 165 162 345
175 369 191 349 8 -10 159 -215 336 -454z m-1841 310 c46 -53 109 -124 139
-159 30 -35 60 -69 65 -75 6 -6 42 -47 80 -91 38 -44 72 -82 75 -85 3 -3 37
-41 75 -85 39 -44 72 -82 75 -85 3 -3 30 -34 60 -70 30 -36 57 -67 60 -70 3
-3 39 -43 80 -90 41 -46 83 -93 92 -103 19 -22 20 -19 -52 -172 -29 -60 -65
-137 -80 -170 -15 -33 -51 -109 -80 -170 -28 -60 -75 -159 -103 -220 -28 -60
-68 -143 -87 -184 l-36 -73 -154 256 c-191 316 -197 327 -207 346 -4 8 -19 33
-34 55 -14 22 -37 59 -50 82 -13 23 -107 180 -208 347 -113 188 -181 311 -178
321 4 8 54 97 113 198 252 430 245 420 259 406 7 -8 50 -57 96 -109z m3425
-838 l102 -99 -165 -409 c-90 -225 -167 -416 -169 -424 -3 -8 -13 -32 -22 -53
l-17 -38 -191 258 -191 258 25 50 c13 28 41 79 62 115 20 36 49 86 63 112 15
26 48 85 73 130 50 87 90 159 151 271 l37 67 71 -69 c38 -38 116 -114 171
-169z"/>
</g>
</svg>
